<svg version="1.1" viewBox="0.0 0.0 960.0 720.0" fill="none" stroke="none" stroke-linecap="square" stroke-miterlimit="10" xmlns:xlink="http://www.w3.org/1999/xlink" xmlns="http://www.w3.org/2000/svg"><clipPath id="p.0"><path d="m0 0l960.0 0l0 720.0l-960.0 0l0 -720.0z" clip-rule="nonzero"/></clipPath><g clip-path="url(#p.0)"><path fill="#000000" fill-opacity="0.0" d="m0 0l960.0 0l0 720.0l-960.0 0z" fill-rule="evenodd"/><path fill="#000000" fill-opacity="0.0" d="m67.46457 299.57742l825.0709 0l0 53.417328l-825.0709 0z" fill-rule="evenodd"/><path stroke="#d9d9d9" stroke-width="2.0" stroke-linejoin="round" stroke-linecap="butt" d="m67.46457 299.57742l825.0709 0l0 53.417328l-825.0709 0z" fill-rule="evenodd"/><path fill="#000000" fill-opacity="0.0" d="m256.56693 236.72441l116.25198 0l0 217.13387l-116.25198 0z" fill-rule="evenodd"/><path stroke="#f7d575" stroke-width="2.0" stroke-linejoin="round" stroke-linecap="butt" d="m256.56693 236.72441l116.25198 0l0 217.13387l-116.25198 0z" fill-rule="evenodd"/><path fill="#000000" fill-opacity="0.0" d="m356.7244 453.85828l-30.818756 29.417328l-22.425446 0l-30.818787 -29.417328z" fill-rule="evenodd"/><path stroke="#f7d575" stroke-width="2.0" stroke-linejoin="round" stroke-linecap="butt" d="m356.7244 453.85828l-30.818756 29.417328l-22.425446 0l-30.818787 -29.417328z" fill-rule="evenodd"/><path fill="#000000" fill-opacity="0.0" d="m579.3412 236.72441l116.252014 0l0 217.13387l-116.252014 0z" fill-rule="evenodd"/><path stroke="#4bd1a0" stroke-width="2.0" stroke-linejoin="round" stroke-linecap="butt" d="m579.3412 236.72441l116.252014 0l0 217.13387l-116.252014 0z" fill-rule="evenodd"/><path fill="#000000" fill-opacity="0.0" d="m679.49866 453.85828l-30.818726 29.417328l-22.425476 0l-30.818787 -29.417328z" fill-rule="evenodd"/><path stroke="#4bd1a0" stroke-width="2.0" stroke-linejoin="round" stroke-linecap="butt" d="m679.49866 453.85828l-30.818726 29.417328l-22.425476 0l-30.818787 -29.417328z" fill-rule="evenodd"/></g></svg>