<svg version="1.1" viewBox="0.0 0.0 960.0 720.0" fill="none" stroke="none" stroke-linecap="square" stroke-miterlimit="10" xmlns:xlink="http://www.w3.org/1999/xlink" xmlns="http://www.w3.org/2000/svg"><clipPath id="p.0"><path d="m0 0l960.0 0l0 720.0l-960.0 0l0 -720.0z" clip-rule="nonzero"/></clipPath><g clip-path="url(#p.0)"><path fill="#000000" fill-opacity="0.0" d="m0 0l960.0 0l0 720.0l-960.0 0z" fill-rule="evenodd"/><path fill="#f7d57f" d="m89.88714 274.09445l558.77167 0l0 52.346436l-558.77167 0z" fill-rule="evenodd"/><path fill="#f7d57f" d="m89.88714 335.45172l558.77167 0l0 52.346466l-558.77167 0z" fill-rule="evenodd"/><path fill="#f7d57f" d="m89.88714 395.44415l558.77167 0l0 52.346466l-558.77167 0z" fill-rule="evenodd"/><path fill="#f7d57f" d="m89.88714 455.4354l558.77167 0l0 52.346436l-558.77167 0z" fill-rule="evenodd"/><path fill="#000000" fill-opacity="0.0" d="m660.7186 447.79086l193.98425 1.3228455" fill-rule="evenodd"/><path stroke="#ffffff" stroke-width="3.0" stroke-linejoin="round" stroke-linecap="butt" d="m660.7186 447.79086l193.98425 1.3228455" fill-rule="evenodd"/><path fill="#000000" fill-opacity="0.0" d="m658.34595 394.9712l193.98425 0.47244263" fill-rule="evenodd"/><path stroke="#ffffff" stroke-width="3.0" stroke-linejoin="round" stroke-linecap="butt" d="m658.34595 394.9712l193.98425 0.47244263" fill-rule="evenodd"/><path fill="#000000" fill-opacity="0.0" d="m752.9843 191.20735l0 201.95274" fill-rule="evenodd"/><path stroke="#ffffff" stroke-width="8.0" stroke-linejoin="round" stroke-linecap="butt" d="m752.9843 191.20735l0 153.95274" fill-rule="evenodd"/><path fill="#ffffff" stroke="#ffffff" stroke-width="8.0" stroke-linecap="butt" d="m739.77045 345.1601l13.213867 36.30478l13.213867 -36.30478z" fill-rule="evenodd"/><path fill="#000000" fill-opacity="0.0" d="m755.3227 642.4654l0.03149414 -193.44879" fill-rule="evenodd"/><path stroke="#ffffff" stroke-width="8.0" stroke-linejoin="round" stroke-linecap="butt" d="m755.3227 642.46545l0.02368164 -145.44885" fill-rule="evenodd"/><path fill="#ffffff" stroke="#ffffff" stroke-width="8.0" stroke-linecap="butt" d="m768.5602 497.01877l-13.207947 -36.306946l-13.219727 36.302643z" fill-rule="evenodd"/></g></svg>