<svg version="1.1" viewBox="0.0 0.0 960.0 384.0" fill="none" stroke="none" stroke-linecap="square" stroke-miterlimit="10" xmlns:xlink="http://www.w3.org/1999/xlink" xmlns="http://www.w3.org/2000/svg"><clipPath id="p.0"><path d="m0 0l960.0 0l0 384.0l-960.0 0l0 -384.0z" clip-rule="nonzero"/></clipPath><g clip-path="url(#p.0)"><path fill="#000000" fill-opacity="0.0" d="m0 0l960.0 0l0 384.0l-960.0 0z" fill-rule="evenodd"/><path fill="#b7b7b7" d="m0 31.278044l0 0c0 -3.5080204 2.8438125 -6.3518333 6.351833 -6.3518333l576.39874 0c1.6845703 0 3.300232 0.66921043 4.491394 1.8604088c1.1912231 1.1912003 1.8604126 2.8068142 1.8604126 4.4914246l0 25.406569c0 3.5080223 -2.843811 6.3518333 -6.3518066 6.3518333l-576.39874 0c-3.5080204 0 -6.351833 -2.843811 -6.351833 -6.3518333z" fill-rule="evenodd"/><path fill="#b7b7b7" d="m79.07772 83.41687l0 0c0 -1.7540131 1.4219055 -3.1759186 3.1759186 -3.1759186l424.6088 0c0.8423157 0 1.650116 0.33461 2.2457275 0.9302063c0.59558105 0.59560394 0.9302063 1.4034042 0.9302063 2.2457123l0 12.703285c0 1.7540131 -1.4219055 3.1759186 -3.1759338 3.1759186l-424.6088 0l0 0c-1.7540131 0 -3.1759186 -1.4219055 -3.1759186 -3.1759186z" fill-rule="evenodd"/><path fill="#b7b7b7" d="m79.07772 118.81254l0 0c0 -1.7540131 1.4219055 -3.1759186 3.1759186 -3.1759186l424.6088 0c0.8423157 0 1.650116 0.33461 2.2457275 0.9302063c0.59558105 0.59560394 0.9302063 1.4034042 0.9302063 2.2457123l0 12.703285c0 1.7540131 -1.4219055 3.1759186 -3.1759338 3.1759186l-424.6088 0l0 0c-1.7540131 0 -3.1759186 -1.4219055 -3.1759186 -3.1759186z" fill-rule="evenodd"/><path fill="#b7b7b7" d="m79.07772 153.74727l0 0c0 -1.7540131 1.4219055 -3.1759186 3.1759186 -3.1759186l424.6088 0c0.8423157 0 1.650116 0.33461 2.2457275 0.9302063c0.59558105 0.5956116 0.9302063 1.4034119 0.9302063 2.2457123l0 12.703293c0 1.7540131 -1.4219055 3.1759186 -3.1759338 3.1759186l-424.6088 0l0 0c-1.7540131 0 -3.1759186 -1.4219055 -3.1759186 -3.1759186z" fill-rule="evenodd"/><path fill="#b7b7b7" d="m79.07772 188.45578l0 0c0 -1.7540131 1.4219055 -3.1759186 3.1759186 -3.1759186l777.9001 0c0.8423462 0 1.6501465 0.33461 2.2457275 0.9302063c0.59558105 0.5955963 0.9302368 1.4034119 0.9302368 2.2457123l0 12.703293c0 1.7540131 -1.421936 3.1759186 -3.1759644 3.1759186l-777.9001 0l0 0c-1.7540131 0 -3.1759186 -1.4219055 -3.1759186 -3.1759186z" fill-rule="evenodd"/><path fill="#b7b7b7" d="m79.07772 223.04553l0 0c0 -1.7540131 1.4219055 -3.1759186 3.1759186 -3.1759186l424.6088 0c0.8423157 0 1.650116 0.33459473 2.2457275 0.9302063c0.59558105 0.5955963 0.9302063 1.4033966 0.9302063 2.2457123l0 12.703278c0 1.7540131 -1.4219055 3.1759186 -3.1759338 3.1759186l-424.6088 0l0 0c-1.7540131 0 -3.1759186 -1.4219055 -3.1759186 -3.1759186z" fill-rule="evenodd"/><path fill="#b7b7b7" d="m79.07772 257.63525l0 0c0 -1.7539978 1.4219055 -3.1759033 3.1759186 -3.1759033l424.6088 0c0.8423157 0 1.650116 0.33461 2.2457275 0.9302063c0.59558105 0.5955963 0.9302063 1.4034119 0.9302063 2.245697l0 12.703308c0 1.7539978 -1.4219055 3.1759033 -3.1759338 3.1759033l-424.6088 0l0 0c-1.7540131 0 -3.1759186 -1.4219055 -3.1759186 -3.1759033z" fill-rule="evenodd"/><path fill="#b7b7b7" d="m79.07772 292.225l0 0c0 -1.7539978 1.4219055 -3.1759033 3.1759186 -3.1759033l424.6088 0c0.8423157 0 1.650116 0.33459473 2.2457275 0.9302063c0.59558105 0.59558105 0.9302063 1.4033813 0.9302063 2.245697l0 12.703278c0 1.7540283 -1.4219055 3.1759338 -3.1759338 3.1759338l-424.6088 0l0 0c-1.7540131 0 -3.1759186 -1.4219055 -3.1759186 -3.1759338z" fill-rule="evenodd"/><path fill="#b7b7b7" d="m0 329.99066l0 0c0 -3.5080261 2.8438125 -6.351837 6.351833 -6.351837l576.39874 0c1.6845703 0 3.300232 0.66922 4.491394 1.8604126c1.1912231 1.1911926 1.8604126 2.8068237 1.8604126 4.4914246l0 25.406586c0 3.5080261 -2.843811 6.351837 -6.3518066 6.351837l-576.39874 0c-3.5080204 0 -6.351833 -2.843811 -6.351833 -6.351837z" fill-rule="evenodd"/><path fill="#000000" fill-opacity="0.0" d="m878.80963 185.27986l37.13385 -0.12597656" fill-rule="evenodd"/><path stroke="#666666" stroke-width="1.0" stroke-linejoin="round" stroke-linecap="butt" d="m878.80963 185.27986l37.13385 -0.12597656" fill-rule="evenodd"/><path fill="#000000" fill-opacity="0.0" d="m880.15283 204.32233l36.75592 0" fill-rule="evenodd"/><path stroke="#666666" stroke-width="1.0" stroke-linejoin="round" stroke-linecap="butt" d="m880.15283 204.32233l36.75592 0" fill-rule="evenodd"/><path fill="#000000" fill-opacity="0.0" d="m897.3859 115.63662l0.9133911 63.622047" fill-rule="evenodd"/><path stroke="#666666" stroke-width="2.0" stroke-linejoin="round" stroke-linecap="butt" d="m897.3859 115.63663l0.7411499 51.62329" fill-rule="evenodd"/><path fill="#666666" stroke="#666666" stroke-width="2.0" stroke-linecap="butt" d="m894.8239 167.30733l3.4334106 9.027847l3.1728516 -9.122681z" fill-rule="evenodd"/><path fill="#000000" fill-opacity="0.0" d="m897.84314 267.91406l0 -63.622055" fill-rule="evenodd"/><path stroke="#666666" stroke-width="2.0" stroke-linejoin="round" stroke-linecap="butt" d="m897.8432 267.91406l0 -51.62204" fill-rule="evenodd"/><path fill="#666666" stroke="#666666" stroke-width="2.0" stroke-linecap="butt" d="m901.14667 216.292l-3.3034668 -9.076187l-3.3034668 9.076187z" fill-rule="evenodd"/><path fill="#000000" fill-opacity="0.0" d="m887.41187 69.9845l72.59845 0l0 58.173233l-72.59845 0z" fill-rule="evenodd"/><path fill="#666666" d="m915.77124 88.47012l2.46875 -2.765625l2.171875 1.90625l-2.609375 2.9375q1.046875 1.40625 1.625 3.46875q0.578125 2.046875 0.578125 4.359375q0 5.453125 -3.015625 8.59375q-3.015625 3.125 -7.96875 3.125q-4.296875 0 -6.875 -1.953125l-2.53125 2.84375l-2.21875 -1.9375l2.671875 -3.0q-2.28125 -3.046875 -2.28125 -7.9375q0 -5.421875 3.015625 -8.5625q3.015625 -3.140625 8.046875 -3.140625q4.171875 0 6.921875 2.0625zm-2.875 3.21875q-1.578125 -1.34375 -4.0 -1.34375q-2.84375 0 -4.59375 1.96875q-1.75 1.953125 -1.75 5.90625q0 2.484375 0.71875 4.25l9.625 -10.78125zm1.703125 2.453125l-9.609375 10.796875q1.609375 1.40625 3.875 1.40625q2.78125 0 4.5625 -2.015625q1.796875 -2.015625 1.796875 -6.015625q0 -2.53125 -0.625 -4.171875z" fill-rule="nonzero"/></g></svg>