<svg version="1.1" viewBox="0.0 0.0 960.0 720.0" fill="none" stroke="none" stroke-linecap="square" stroke-miterlimit="10" xmlns:xlink="http://www.w3.org/1999/xlink" xmlns="http://www.w3.org/2000/svg"><clipPath id="p.0"><path d="m0 0l960.0 0l0 720.0l-960.0 0l0 -720.0z" clip-rule="nonzero"/></clipPath><g clip-path="url(#p.0)"><path fill="#000000" fill-opacity="0.0" d="m0 0l960.0 0l0 720.0l-960.0 0z" fill-rule="evenodd"/><path fill="#b7b7b7" d="m46.110237 212.30458l0 0c0 -3.1949158 2.589985 -5.784897 5.784893 -5.784897l520.96564 0c1.5342407 0 3.0056763 0.6094818 4.090515 1.6943512c1.0848999 1.0848846 1.694397 2.5562897 1.694397 4.0905457l0 23.13887c0 3.1949158 -2.5900269 5.784897 -5.784912 5.784897l-520.96564 0c-3.1949081 0 -5.784893 -2.589981 -5.784893 -5.784897z" fill-rule="evenodd"/><path fill="#b7b7b7" d="m117.5923 259.8322l0 0c0 -1.6003723 1.2973404 -2.897705 2.8976898 -2.897705l383.77942 0c0.76852417 0 1.5055542 0.30529785 2.0489807 0.84872437c0.5434265 0.5434265 0.84872437 1.2804565 0.84872437 2.0489807l0 11.590424c0 1.6003418 -1.2973633 2.897705 -2.897705 2.897705l-383.77942 0c-1.6003494 0 -2.8976898 -1.2973633 -2.8976898 -2.897705z" fill-rule="evenodd"/><path fill="#b7b7b7" d="m117.5923 292.09244l0 0c0 -1.6003418 1.2973404 -2.897705 2.8976898 -2.897705l383.77942 0c0.76852417 0 1.5055542 0.30529785 2.0489807 0.84872437c0.5434265 0.5434265 0.84872437 1.2804565 0.84872437 2.0489807l0 11.590424c0 1.6003723 -1.2973633 2.897705 -2.897705 2.897705l-383.77942 0c-1.6003494 0 -2.8976898 -1.2973328 -2.8976898 -2.897705z" fill-rule="evenodd"/><path fill="#b7b7b7" d="m117.5923 323.93256l0 0c0 -1.6003418 1.2973404 -2.8976746 2.8976898 -2.8976746l383.77942 0c0.76852417 0 1.5055542 0.30526733 2.0489807 0.84869385c0.5434265 0.5434265 0.84872437 1.2804565 0.84872437 2.0489807l0 11.590454c0 1.6003418 -1.2973633 2.8976746 -2.897705 2.8976746l-383.77942 0c-1.6003494 0 -2.8976898 -1.2973328 -2.8976898 -2.8976746z" fill-rule="evenodd"/><path fill="#b7b7b7" d="m117.5923 355.5665l0 0c0 -1.6003418 1.2973404 -2.8976746 2.8976898 -2.8976746l703.118 0c0.7685547 0 1.5055542 0.30526733 2.0490112 0.84869385c0.543396 0.5434265 0.84869385 1.2804565 0.84869385 2.0489807l0 11.590454c0 1.6003418 -1.2973633 2.8976746 -2.897705 2.8976746l-703.118 0l0 0c-1.6003494 0 -2.8976898 -1.2973328 -2.8976898 -2.8976746z" fill-rule="evenodd"/><path fill="#b7b7b7" d="m117.5923 387.0922l0 0c0 -1.6003418 1.2973404 -2.8976746 2.8976898 -2.8976746l383.77942 0c0.76852417 0 1.5055542 0.30526733 2.0489807 0.84869385c0.5434265 0.5434265 0.84872437 1.2804565 0.84872437 2.0489807l0 11.590454c0 1.6003418 -1.2973633 2.8976746 -2.897705 2.8976746l-383.77942 0c-1.6003494 0 -2.8976898 -1.2973328 -2.8976898 -2.8976746z" fill-rule="evenodd"/><path fill="#b7b7b7" d="m117.5923 418.6179l0 0c0 -1.6003418 1.2973404 -2.8976746 2.8976898 -2.8976746l383.77942 0c0.76852417 0 1.5055542 0.30526733 2.0489807 0.84869385c0.5434265 0.5434265 0.84872437 1.2804565 0.84872437 2.0489807l0 11.590454c0 1.6003418 -1.2973633 2.8976746 -2.897705 2.8976746l-383.77942 0c-1.6003494 0 -2.8976898 -1.2973328 -2.8976898 -2.8976746z" fill-rule="evenodd"/><path fill="#b7b7b7" d="m117.5923 450.1436l0 0c0 -1.6003418 1.2973404 -2.8976746 2.8976898 -2.8976746l383.77942 0c0.76852417 0 1.5055542 0.30526733 2.0489807 0.84869385c0.5434265 0.5434265 0.84872437 1.2804565 0.84872437 2.0489807l0 11.590454c0 1.6003418 -1.2973633 2.8976746 -2.897705 2.8976746l-383.77942 0c-1.6003494 0 -2.8976898 -1.2973328 -2.8976898 -2.8976746z" fill-rule="evenodd"/><path fill="#b7b7b7" d="m46.110237 484.5565l0 0c0 -3.1949158 2.589985 -5.784912 5.784893 -5.784912l520.96564 0c1.5342407 0 3.0056763 0.6094971 4.090515 1.6943665c1.0848999 1.0848694 1.694397 2.556305 1.694397 4.0905457l0 23.138885c0 3.1948853 -2.5900269 5.784851 -5.784912 5.784851l-520.96564 0c-3.1949081 0 -5.784893 -2.5899658 -5.784893 -5.784851z" fill-rule="evenodd"/><path fill="#000000" fill-opacity="0.0" d="m840.5075 352.66882l33.543274 -0.09451294" fill-rule="evenodd"/><path stroke="#666666" stroke-width="1.0" stroke-linejoin="round" stroke-linecap="butt" d="m840.5075 352.66882l33.543274 -0.09451294" fill-rule="evenodd"/><path fill="#000000" fill-opacity="0.0" d="m841.7217 370.02444l33.228333 0" fill-rule="evenodd"/><path stroke="#666666" stroke-width="1.0" stroke-linejoin="round" stroke-linecap="butt" d="m841.7217 370.02444l33.228333 0" fill-rule="evenodd"/><path fill="#000000" fill-opacity="0.0" d="m857.29944 289.19473l0.85040283 57.95276" fill-rule="evenodd"/><path stroke="#666666" stroke-width="2.0" stroke-linejoin="round" stroke-linecap="butt" d="m857.29944 289.19473l0.6743164 45.95407" fill-rule="evenodd"/><path fill="#666666" stroke="#666666" stroke-width="2.0" stroke-linecap="butt" d="m854.67065 335.19727l3.4362793 9.026764l3.169983 -9.123688z" fill-rule="evenodd"/><path fill="#000000" fill-opacity="0.0" d="m857.71277 427.98306l0 -57.95276" fill-rule="evenodd"/><path stroke="#666666" stroke-width="2.0" stroke-linejoin="round" stroke-linecap="butt" d="m857.71277 427.98306l0 -45.95276" fill-rule="evenodd"/><path fill="#666666" stroke="#666666" stroke-width="2.0" stroke-linecap="butt" d="m861.01624 382.0303l-3.3034668 -9.076202l-3.3034668 9.076202z" fill-rule="evenodd"/><path fill="#000000" fill-opacity="0.0" d="m848.28345 247.5866l65.60632 0l0 58.173233l-65.60632 0z" fill-rule="evenodd"/><path fill="#666666" d="m876.6428 266.07224l2.46875 -2.765625l2.171875 1.90625l-2.609375 2.9375q1.046875 1.40625 1.625 3.46875q0.578125 2.046875 0.578125 4.359375q0 5.453125 -3.015625 8.59375q-3.015625 3.125 -7.96875 3.125q-4.296875 0 -6.875 -1.953125l-2.53125 2.84375l-2.21875 -1.9375l2.671875 -3.0q-2.28125 -3.046875 -2.28125 -7.9375q0 -5.421875 3.015625 -8.5625q3.015625 -3.140625 8.046875 -3.140625q4.171875 0 6.921875 2.0625zm-2.875 3.21875q-1.578125 -1.34375 -4.0 -1.34375q-2.84375 0 -4.59375 1.96875q-1.75 1.953125 -1.75 5.90625q0 2.484375 0.71875 4.25l9.625 -10.78125zm1.703125 2.453125l-9.609375 10.796875q1.609375 1.40625 3.875 1.40625q2.78125 0 4.5625 -2.015625q1.796875 -2.015625 1.796875 -6.015625q0 -2.53125 -0.625 -4.171875z" fill-rule="nonzero"/></g></svg>