<svg version="1.1" viewBox="0.0 0.0 960.0 720.0" fill="none" stroke="none" stroke-linecap="square" stroke-miterlimit="10" xmlns:xlink="http://www.w3.org/1999/xlink" xmlns="http://www.w3.org/2000/svg"><clipPath id="p.0"><path d="m0 0l960.0 0l0 720.0l-960.0 0l0 -720.0z" clip-rule="nonzero"/></clipPath><g clip-path="url(#p.0)"><path fill="#f7d57f" fill-opacity="0.0" d="m0 0l960.0 0l0 720.0l-960.0 0z" fill-rule="evenodd"/><path fill="#b7b7b7" d="m304.0761 434.3832l0 0c0 -52.775818 44.080566 -95.55905 98.456696 -95.55905l0 0c26.112335 0 51.15518 10.06778 69.619385 27.988586c18.464233 17.920807 28.83731 42.226624 28.83731 67.570465l0 0c0 52.775787 -44.080566 95.55905 -98.456696 95.55905l0 0c-54.37613 0 -98.456696 -42.783264 -98.456696 -95.55905z" fill-rule="evenodd"/><path fill="#b7b7b7" d="m480.0 218.64043l0 0c0 -38.381622 31.11444 -69.49606 69.49603 -69.49606l0 0c18.431519 0 36.108154 7.321884 49.141174 20.35492c13.03302 13.033035 20.35492 30.70964 20.35492 49.141144l0 0c0 38.381607 -31.11444 69.49605 -69.49609 69.49605l0 0c-38.38159 0 -69.49603 -31.11444 -69.49603 -69.49605z" fill-rule="evenodd"/><path fill="#b7b7b7" d="m350.39108 84.72179l0 0c0 -32.380413 26.580872 -58.62992 59.370087 -58.62992l0 0c15.745911 0 30.846924 6.177065 41.980957 17.172308c11.134064 10.995243 17.3891 25.907993 17.3891 41.457615l0 0c0 32.38041 -26.580872 58.629913 -59.370056 58.629913l0 0c-32.789215 0 -59.370087 -26.249504 -59.370087 -58.629913z" fill-rule="evenodd"/><path fill="#b7b7b7" d="m702.2598 212.84776l0 0c0 -38.381607 31.11444 -69.49606 69.49609 -69.49606l0 0c18.431458 0 36.108093 7.3218994 49.141113 20.354935c13.03302 13.033035 20.35492 30.709625 20.35492 49.14113l0 0c0 38.381622 -31.11444 69.49608 -69.49603 69.49608l0 0c-38.381653 0 -69.49609 -31.114456 -69.49609 -69.49608z" fill-rule="evenodd"/><path fill="#b7b7b7" d="m99.91338 288.8714l0 0c0 -45.182983 35.655052 -81.811035 79.637794 -81.811035l0 0c21.121262 0 41.37744 8.619354 56.312424 23.961899c14.934982 15.342545 23.325363 36.151505 23.325363 57.849136l0 0c0 45.182983 -35.655045 81.811005 -79.63779 81.811005l0 0c-43.982742 0 -79.637794 -36.62802 -79.637794 -81.811005z" fill-rule="evenodd"/><path fill="#b7b7b7" d="m609.5906 531.3937l0 0c0 -38.38159 31.11444 -69.49603 69.49603 -69.49603l0 0c18.431519 0 36.108093 7.321869 49.141113 20.35492c13.033081 13.033051 20.35498 30.709656 20.35498 49.141113l0 0c0 38.381653 -31.114502 69.49609 -69.49609 69.49609l0 0c-38.38159 0 -69.49603 -31.11444 -69.49603 -69.49609z" fill-rule="evenodd"/><path fill="#b7b7b7" d="m221.54068 600.8924l0 0c0 -34.3808 28.844147 -62.251953 64.4252 -62.251953l0 0c17.086609 0 33.47342 6.558655 45.55548 18.233154c12.082092 11.6744995 18.86972 27.508545 18.86972 44.0188l0 0c0 34.3808 -28.844147 62.251953 -64.4252 62.251953l0 0c-35.581055 0 -64.4252 -27.871155 -64.4252 -62.251953z" fill-rule="evenodd"/><path fill="#b7b7b7" d="m219.66574 282.8566l166.01575 118.834625l-33.417328 46.677185l-166.01573 -118.834656z" fill-rule="evenodd"/><path fill="#b7b7b7" d="m466.96274 437.84305l194.36221 62.48819l-17.57483 54.64563l-194.36218 -62.48816z" fill-rule="evenodd"/><path fill="#b7b7b7" d="m557.1795 194.93835l203.93701 -9.921265l2.7716064 57.32283l-203.93695 9.921265z" fill-rule="evenodd"/><path fill="#b7b7b7" d="m536.61395 265.9302l-138.2362 -150.2362l42.2677 -38.866142l138.2362 150.2362z" fill-rule="evenodd"/><path fill="#b7b7b7" d="m398.3778 393.4653l116.0 -167.99998l47.24408 32.62993l-116.0 168.0z" fill-rule="evenodd"/><path fill="#b7b7b7" d="m250.4041 598.3078l117.57478 -166.89764l46.92914 33.070892l-117.5748 166.89761z" fill-rule="evenodd"/></g></svg>